<mxfile host="app.diagrams.net" agent="Mozilla/5.0 (X11; Ubuntu; Linux x86_64; rv:140.0) Gecko/20100101 Firefox/140.0" version="28.0.4">
  <diagram name="第 1 页" id="LMbzQTUDNy44uZFcEyyu">
    <mxGraphModel dx="5580" dy="2757" grid="0" gridSize="10" guides="1" tooltips="1" connect="1" arrows="1" fold="1" page="1" pageScale="1" pageWidth="827" pageHeight="1169" background="none" math="0" shadow="0">
      <root>
        <mxCell id="0" />
        <mxCell id="1" parent="0" />
        <mxCell id="JwGyQa2PH85FUKWqyVEM-70" value="" style="rounded=0;whiteSpace=wrap;html=1;dashed=1;fillColor=none;" vertex="1" parent="1">
          <mxGeometry x="-816" y="1182" width="516" height="1164" as="geometry" />
        </mxCell>
        <mxCell id="JwGyQa2PH85FUKWqyVEM-68" value="" style="rounded=0;whiteSpace=wrap;html=1;dashed=1;fillColor=none;" vertex="1" parent="1">
          <mxGeometry x="-818" y="15" width="764" height="1136" as="geometry" />
        </mxCell>
        <mxCell id="JwGyQa2PH85FUKWqyVEM-5" style="edgeStyle=orthogonalEdgeStyle;rounded=0;orthogonalLoop=1;jettySize=auto;html=1;exitX=0.75;exitY=1;exitDx=0;exitDy=0;entryX=0;entryY=0.5;entryDx=0;entryDy=0;" edge="1" parent="1" source="JwGyQa2PH85FUKWqyVEM-1" target="JwGyQa2PH85FUKWqyVEM-64">
          <mxGeometry relative="1" as="geometry">
            <mxPoint x="-590" y="1590" as="targetPoint" />
          </mxGeometry>
        </mxCell>
        <mxCell id="JwGyQa2PH85FUKWqyVEM-9" style="edgeStyle=orthogonalEdgeStyle;rounded=0;orthogonalLoop=1;jettySize=auto;html=1;" edge="1" parent="1" source="JwGyQa2PH85FUKWqyVEM-1" target="JwGyQa2PH85FUKWqyVEM-8">
          <mxGeometry relative="1" as="geometry" />
        </mxCell>
        <mxCell id="JwGyQa2PH85FUKWqyVEM-1" value="flame参数" style="rounded=1;whiteSpace=wrap;html=1;" vertex="1" parent="1">
          <mxGeometry x="-730" y="1289" width="120" height="60" as="geometry" />
        </mxCell>
        <mxCell id="JwGyQa2PH85FUKWqyVEM-6" style="edgeStyle=orthogonalEdgeStyle;rounded=0;orthogonalLoop=1;jettySize=auto;html=1;exitX=0.5;exitY=1;exitDx=0;exitDy=0;entryX=0.5;entryY=0;entryDx=0;entryDy=0;" edge="1" parent="1" source="JwGyQa2PH85FUKWqyVEM-49" target="JwGyQa2PH85FUKWqyVEM-64">
          <mxGeometry relative="1" as="geometry">
            <mxPoint x="-490" y="1360" as="sourcePoint" />
            <mxPoint x="-560" y="1450" as="targetPoint" />
          </mxGeometry>
        </mxCell>
        <mxCell id="JwGyQa2PH85FUKWqyVEM-7" style="edgeStyle=orthogonalEdgeStyle;rounded=0;orthogonalLoop=1;jettySize=auto;html=1;exitX=0.5;exitY=1;exitDx=0;exitDy=0;" edge="1" parent="1" source="JwGyQa2PH85FUKWqyVEM-52" target="JwGyQa2PH85FUKWqyVEM-4">
          <mxGeometry relative="1" as="geometry">
            <mxPoint x="-560" y="1640" as="sourcePoint" />
          </mxGeometry>
        </mxCell>
        <mxCell id="JwGyQa2PH85FUKWqyVEM-21" style="edgeStyle=orthogonalEdgeStyle;rounded=0;orthogonalLoop=1;jettySize=auto;html=1;entryX=0.75;entryY=0;entryDx=0;entryDy=0;" edge="1" parent="1" source="JwGyQa2PH85FUKWqyVEM-4" target="JwGyQa2PH85FUKWqyVEM-15">
          <mxGeometry relative="1" as="geometry" />
        </mxCell>
        <mxCell id="JwGyQa2PH85FUKWqyVEM-4" value="&lt;div&gt;形变顶点&lt;/div&gt;&lt;div&gt;14876,3&lt;/div&gt;" style="rounded=1;whiteSpace=wrap;html=1;" vertex="1" parent="1">
          <mxGeometry x="-550" y="1690" width="120" height="60" as="geometry" />
        </mxCell>
        <mxCell id="JwGyQa2PH85FUKWqyVEM-16" style="edgeStyle=orthogonalEdgeStyle;rounded=0;orthogonalLoop=1;jettySize=auto;html=1;entryX=0.5;entryY=0;entryDx=0;entryDy=0;" edge="1" parent="1" source="JwGyQa2PH85FUKWqyVEM-8" target="JwGyQa2PH85FUKWqyVEM-10">
          <mxGeometry relative="1" as="geometry" />
        </mxCell>
        <mxCell id="JwGyQa2PH85FUKWqyVEM-8" value="构建几何模型" style="rounded=0;whiteSpace=wrap;html=1;" vertex="1" parent="1">
          <mxGeometry x="-730" y="1550" width="120" height="60" as="geometry" />
        </mxCell>
        <mxCell id="JwGyQa2PH85FUKWqyVEM-17" style="edgeStyle=orthogonalEdgeStyle;rounded=0;orthogonalLoop=1;jettySize=auto;html=1;entryX=0.5;entryY=0;entryDx=0;entryDy=0;" edge="1" parent="1" source="JwGyQa2PH85FUKWqyVEM-10" target="JwGyQa2PH85FUKWqyVEM-12">
          <mxGeometry relative="1" as="geometry" />
        </mxCell>
        <mxCell id="JwGyQa2PH85FUKWqyVEM-10" value="&lt;div&gt;geometry&lt;/div&gt;&lt;div&gt;5023,3&lt;/div&gt;" style="rounded=1;whiteSpace=wrap;html=1;" vertex="1" parent="1">
          <mxGeometry x="-730" y="1670" width="120" height="60" as="geometry" />
        </mxCell>
        <mxCell id="JwGyQa2PH85FUKWqyVEM-18" style="edgeStyle=orthogonalEdgeStyle;rounded=0;orthogonalLoop=1;jettySize=auto;html=1;" edge="1" parent="1" source="JwGyQa2PH85FUKWqyVEM-12" target="JwGyQa2PH85FUKWqyVEM-14">
          <mxGeometry relative="1" as="geometry" />
        </mxCell>
        <mxCell id="JwGyQa2PH85FUKWqyVEM-12" value="&lt;div&gt;面片顶点&lt;/div&gt;10006,3" style="rounded=1;whiteSpace=wrap;html=1;" vertex="1" parent="1">
          <mxGeometry x="-730" y="1780" width="120" height="60" as="geometry" />
        </mxCell>
        <mxCell id="JwGyQa2PH85FUKWqyVEM-20" style="edgeStyle=orthogonalEdgeStyle;rounded=0;orthogonalLoop=1;jettySize=auto;html=1;exitX=0.5;exitY=1;exitDx=0;exitDy=0;entryX=0.25;entryY=0;entryDx=0;entryDy=0;" edge="1" parent="1" source="JwGyQa2PH85FUKWqyVEM-13" target="JwGyQa2PH85FUKWqyVEM-15">
          <mxGeometry relative="1" as="geometry" />
        </mxCell>
        <mxCell id="JwGyQa2PH85FUKWqyVEM-13" value="&lt;div&gt;UV采样点位置&lt;/div&gt;&lt;div&gt;14876,3&lt;/div&gt;" style="rounded=1;whiteSpace=wrap;html=1;" vertex="1" parent="1">
          <mxGeometry x="-730" y="1970" width="120" height="60" as="geometry" />
        </mxCell>
        <mxCell id="JwGyQa2PH85FUKWqyVEM-19" style="edgeStyle=orthogonalEdgeStyle;rounded=0;orthogonalLoop=1;jettySize=auto;html=1;" edge="1" parent="1" source="JwGyQa2PH85FUKWqyVEM-14" target="JwGyQa2PH85FUKWqyVEM-13">
          <mxGeometry relative="1" as="geometry" />
        </mxCell>
        <mxCell id="JwGyQa2PH85FUKWqyVEM-14" value="uv映射" style="rounded=0;whiteSpace=wrap;html=1;" vertex="1" parent="1">
          <mxGeometry x="-730" y="1880" width="120" height="60" as="geometry" />
        </mxCell>
        <mxCell id="JwGyQa2PH85FUKWqyVEM-24" style="edgeStyle=orthogonalEdgeStyle;rounded=0;orthogonalLoop=1;jettySize=auto;html=1;" edge="1" parent="1" source="JwGyQa2PH85FUKWqyVEM-15" target="JwGyQa2PH85FUKWqyVEM-22">
          <mxGeometry relative="1" as="geometry" />
        </mxCell>
        <mxCell id="JwGyQa2PH85FUKWqyVEM-15" value="相加" style="rounded=0;whiteSpace=wrap;html=1;" vertex="1" parent="1">
          <mxGeometry x="-650" y="2150" width="120" height="60" as="geometry" />
        </mxCell>
        <mxCell id="JwGyQa2PH85FUKWqyVEM-54" style="edgeStyle=orthogonalEdgeStyle;rounded=0;orthogonalLoop=1;jettySize=auto;html=1;" edge="1" parent="1" source="JwGyQa2PH85FUKWqyVEM-22" target="JwGyQa2PH85FUKWqyVEM-53">
          <mxGeometry relative="1" as="geometry" />
        </mxCell>
        <mxCell id="JwGyQa2PH85FUKWqyVEM-22" value="&lt;div&gt;xyz&lt;/div&gt;&lt;div&gt;delta_rot&lt;/div&gt;&lt;div&gt;delta_scale&lt;/div&gt;" style="rounded=1;whiteSpace=wrap;html=1;" vertex="1" parent="1">
          <mxGeometry x="-650" y="2270" width="120" height="60" as="geometry" />
        </mxCell>
        <mxCell id="JwGyQa2PH85FUKWqyVEM-31" value="" style="edgeStyle=orthogonalEdgeStyle;rounded=0;orthogonalLoop=1;jettySize=auto;html=1;" edge="1" parent="1" source="JwGyQa2PH85FUKWqyVEM-25" target="JwGyQa2PH85FUKWqyVEM-27">
          <mxGeometry relative="1" as="geometry" />
        </mxCell>
        <mxCell id="JwGyQa2PH85FUKWqyVEM-25" value="flame参数" style="rounded=1;whiteSpace=wrap;html=1;" vertex="1" parent="1">
          <mxGeometry x="-420" y="30" width="120" height="60" as="geometry" />
        </mxCell>
        <mxCell id="JwGyQa2PH85FUKWqyVEM-26" style="edgeStyle=orthogonalEdgeStyle;rounded=0;orthogonalLoop=1;jettySize=auto;html=1;entryX=0.5;entryY=0;entryDx=0;entryDy=0;" edge="1" parent="1" source="JwGyQa2PH85FUKWqyVEM-27" target="JwGyQa2PH85FUKWqyVEM-29">
          <mxGeometry relative="1" as="geometry" />
        </mxCell>
        <mxCell id="JwGyQa2PH85FUKWqyVEM-27" value="&lt;div&gt;构建几何模型&lt;/div&gt;" style="rounded=0;whiteSpace=wrap;html=1;" vertex="1" parent="1">
          <mxGeometry x="-420" y="140" width="120" height="60" as="geometry" />
        </mxCell>
        <mxCell id="JwGyQa2PH85FUKWqyVEM-28" style="edgeStyle=orthogonalEdgeStyle;rounded=0;orthogonalLoop=1;jettySize=auto;html=1;entryX=0.5;entryY=0;entryDx=0;entryDy=0;" edge="1" parent="1" source="JwGyQa2PH85FUKWqyVEM-29" target="JwGyQa2PH85FUKWqyVEM-30">
          <mxGeometry relative="1" as="geometry" />
        </mxCell>
        <mxCell id="JwGyQa2PH85FUKWqyVEM-29" value="&lt;div&gt;geometry&lt;/div&gt;&lt;div&gt;5023,3&lt;/div&gt;" style="rounded=1;whiteSpace=wrap;html=1;" vertex="1" parent="1">
          <mxGeometry x="-420" y="260" width="120" height="60" as="geometry" />
        </mxCell>
        <mxCell id="JwGyQa2PH85FUKWqyVEM-34" value="" style="edgeStyle=orthogonalEdgeStyle;rounded=0;orthogonalLoop=1;jettySize=auto;html=1;" edge="1" parent="1" source="JwGyQa2PH85FUKWqyVEM-30" target="JwGyQa2PH85FUKWqyVEM-32">
          <mxGeometry relative="1" as="geometry" />
        </mxCell>
        <mxCell id="JwGyQa2PH85FUKWqyVEM-30" value="&lt;div&gt;面片顶点&lt;/div&gt;10006,3" style="rounded=1;whiteSpace=wrap;html=1;" vertex="1" parent="1">
          <mxGeometry x="-420" y="370" width="120" height="60" as="geometry" />
        </mxCell>
        <mxCell id="JwGyQa2PH85FUKWqyVEM-37" style="edgeStyle=orthogonalEdgeStyle;rounded=0;orthogonalLoop=1;jettySize=auto;html=1;exitX=0.75;exitY=1;exitDx=0;exitDy=0;entryX=0.5;entryY=0;entryDx=0;entryDy=0;" edge="1" parent="1" source="JwGyQa2PH85FUKWqyVEM-32" target="JwGyQa2PH85FUKWqyVEM-36">
          <mxGeometry relative="1" as="geometry" />
        </mxCell>
        <mxCell id="JwGyQa2PH85FUKWqyVEM-39" style="edgeStyle=orthogonalEdgeStyle;rounded=0;orthogonalLoop=1;jettySize=auto;html=1;" edge="1" parent="1" source="JwGyQa2PH85FUKWqyVEM-33" target="JwGyQa2PH85FUKWqyVEM-38">
          <mxGeometry relative="1" as="geometry" />
        </mxCell>
        <mxCell id="JwGyQa2PH85FUKWqyVEM-45" style="edgeStyle=orthogonalEdgeStyle;rounded=0;orthogonalLoop=1;jettySize=auto;html=1;exitX=0.25;exitY=1;exitDx=0;exitDy=0;" edge="1" parent="1" source="JwGyQa2PH85FUKWqyVEM-32" target="JwGyQa2PH85FUKWqyVEM-43">
          <mxGeometry relative="1" as="geometry" />
        </mxCell>
        <mxCell id="JwGyQa2PH85FUKWqyVEM-32" value="UV光栅化" style="rounded=0;whiteSpace=wrap;html=1;" vertex="1" parent="1">
          <mxGeometry x="-420" y="485" width="120" height="60" as="geometry" />
        </mxCell>
        <mxCell id="JwGyQa2PH85FUKWqyVEM-36" value="&lt;div&gt;重心坐标&lt;/div&gt;&lt;div&gt;128,128,3&lt;/div&gt;" style="rounded=1;whiteSpace=wrap;html=1;" vertex="1" parent="1">
          <mxGeometry x="-287" y="630" width="120" height="60" as="geometry" />
        </mxCell>
        <mxCell id="JwGyQa2PH85FUKWqyVEM-38" value="&lt;div&gt;每个UV像素对应的顶点索引&lt;/div&gt;&lt;div&gt;14876,3&lt;/div&gt;" style="rounded=1;whiteSpace=wrap;html=1;" vertex="1" parent="1">
          <mxGeometry x="-420" y="730" width="120" height="60" as="geometry" />
        </mxCell>
        <mxCell id="JwGyQa2PH85FUKWqyVEM-48" style="edgeStyle=orthogonalEdgeStyle;rounded=0;orthogonalLoop=1;jettySize=auto;html=1;" edge="1" parent="1" source="JwGyQa2PH85FUKWqyVEM-40" target="JwGyQa2PH85FUKWqyVEM-42">
          <mxGeometry relative="1" as="geometry" />
        </mxCell>
        <mxCell id="JwGyQa2PH85FUKWqyVEM-40" value="&lt;div&gt;UV采样点位置&lt;/div&gt;&lt;div&gt;14876,3&lt;/div&gt;" style="rounded=1;whiteSpace=wrap;html=1;" vertex="1" parent="1">
          <mxGeometry x="-550" y="840" width="120" height="60" as="geometry" />
        </mxCell>
        <mxCell id="JwGyQa2PH85FUKWqyVEM-47" style="edgeStyle=orthogonalEdgeStyle;rounded=0;orthogonalLoop=1;jettySize=auto;html=1;" edge="1" parent="1" source="JwGyQa2PH85FUKWqyVEM-41" target="JwGyQa2PH85FUKWqyVEM-40">
          <mxGeometry relative="1" as="geometry" />
        </mxCell>
        <mxCell id="JwGyQa2PH85FUKWqyVEM-41" value="展平过滤" style="rounded=0;whiteSpace=wrap;html=1;" vertex="1" parent="1">
          <mxGeometry x="-550" y="730" width="120" height="60" as="geometry" />
        </mxCell>
        <mxCell id="JwGyQa2PH85FUKWqyVEM-50" style="edgeStyle=orthogonalEdgeStyle;rounded=0;orthogonalLoop=1;jettySize=auto;html=1;" edge="1" parent="1" source="JwGyQa2PH85FUKWqyVEM-42" target="JwGyQa2PH85FUKWqyVEM-49">
          <mxGeometry relative="1" as="geometry" />
        </mxCell>
        <mxCell id="JwGyQa2PH85FUKWqyVEM-42" value="位置编码" style="rounded=0;whiteSpace=wrap;html=1;" vertex="1" parent="1">
          <mxGeometry x="-550" y="960" width="120" height="60" as="geometry" />
        </mxCell>
        <mxCell id="JwGyQa2PH85FUKWqyVEM-46" style="edgeStyle=orthogonalEdgeStyle;rounded=0;orthogonalLoop=1;jettySize=auto;html=1;" edge="1" parent="1" source="JwGyQa2PH85FUKWqyVEM-43" target="JwGyQa2PH85FUKWqyVEM-41">
          <mxGeometry relative="1" as="geometry" />
        </mxCell>
        <mxCell id="JwGyQa2PH85FUKWqyVEM-43" value="&lt;div&gt;每个UV像素的3D坐标&lt;/div&gt;128,128,4" style="rounded=1;whiteSpace=wrap;html=1;" vertex="1" parent="1">
          <mxGeometry x="-550" y="630" width="120" height="60" as="geometry" />
        </mxCell>
        <mxCell id="JwGyQa2PH85FUKWqyVEM-44" value="" style="edgeStyle=orthogonalEdgeStyle;rounded=0;orthogonalLoop=1;jettySize=auto;html=1;" edge="1" parent="1" source="JwGyQa2PH85FUKWqyVEM-32" target="JwGyQa2PH85FUKWqyVEM-33">
          <mxGeometry relative="1" as="geometry">
            <mxPoint x="-360" y="545" as="sourcePoint" />
            <mxPoint x="-340" y="790" as="targetPoint" />
          </mxGeometry>
        </mxCell>
        <mxCell id="JwGyQa2PH85FUKWqyVEM-33" value="&lt;div&gt;每个UV像素对应的面片ID&lt;/div&gt;14876" style="rounded=1;whiteSpace=wrap;html=1;" vertex="1" parent="1">
          <mxGeometry x="-420" y="630" width="120" height="60" as="geometry" />
        </mxCell>
        <mxCell id="JwGyQa2PH85FUKWqyVEM-49" value="&lt;div&gt;顶点特征编码&lt;/div&gt;&lt;div&gt;14876,51&lt;/div&gt;" style="rounded=1;whiteSpace=wrap;html=1;" vertex="1" parent="1">
          <mxGeometry x="-550" y="1060" width="120" height="60" as="geometry" />
        </mxCell>
        <mxCell id="JwGyQa2PH85FUKWqyVEM-52" value="MLP" style="shape=process;whiteSpace=wrap;html=1;backgroundOutline=1;" vertex="1" parent="1">
          <mxGeometry x="-550" y="1550" width="120" height="60" as="geometry" />
        </mxCell>
        <mxCell id="JwGyQa2PH85FUKWqyVEM-56" style="edgeStyle=orthogonalEdgeStyle;rounded=0;orthogonalLoop=1;jettySize=auto;html=1;" edge="1" parent="1" source="JwGyQa2PH85FUKWqyVEM-53" target="JwGyQa2PH85FUKWqyVEM-55">
          <mxGeometry relative="1" as="geometry" />
        </mxCell>
        <mxCell id="JwGyQa2PH85FUKWqyVEM-53" value="高斯点应用变形结果" style="rounded=0;whiteSpace=wrap;html=1;" vertex="1" parent="1">
          <mxGeometry x="-650" y="2450" width="120" height="60" as="geometry" />
        </mxCell>
        <mxCell id="JwGyQa2PH85FUKWqyVEM-58" style="edgeStyle=orthogonalEdgeStyle;rounded=0;orthogonalLoop=1;jettySize=auto;html=1;" edge="1" parent="1" source="JwGyQa2PH85FUKWqyVEM-55" target="JwGyQa2PH85FUKWqyVEM-57">
          <mxGeometry relative="1" as="geometry" />
        </mxCell>
        <mxCell id="JwGyQa2PH85FUKWqyVEM-55" value="高斯点云" style="rounded=1;whiteSpace=wrap;html=1;" vertex="1" parent="1">
          <mxGeometry x="-650" y="2570" width="120" height="60" as="geometry" />
        </mxCell>
        <mxCell id="JwGyQa2PH85FUKWqyVEM-62" style="edgeStyle=orthogonalEdgeStyle;rounded=0;orthogonalLoop=1;jettySize=auto;html=1;exitX=0;exitY=0.5;exitDx=0;exitDy=0;entryX=0;entryY=0.5;entryDx=0;entryDy=0;" edge="1" parent="1" source="JwGyQa2PH85FUKWqyVEM-57" target="JwGyQa2PH85FUKWqyVEM-60">
          <mxGeometry relative="1" as="geometry">
            <Array as="points">
              <mxPoint x="-800" y="2720" />
              <mxPoint x="-800" y="1219" />
            </Array>
          </mxGeometry>
        </mxCell>
        <mxCell id="JwGyQa2PH85FUKWqyVEM-57" value="训练" style="rounded=0;whiteSpace=wrap;html=1;" vertex="1" parent="1">
          <mxGeometry x="-650" y="2690" width="120" height="60" as="geometry" />
        </mxCell>
        <mxCell id="JwGyQa2PH85FUKWqyVEM-61" style="edgeStyle=orthogonalEdgeStyle;rounded=0;orthogonalLoop=1;jettySize=auto;html=1;" edge="1" parent="1" source="JwGyQa2PH85FUKWqyVEM-60" target="JwGyQa2PH85FUKWqyVEM-1">
          <mxGeometry relative="1" as="geometry" />
        </mxCell>
        <mxCell id="JwGyQa2PH85FUKWqyVEM-60" value="选取相机" style="rounded=0;whiteSpace=wrap;html=1;" vertex="1" parent="1">
          <mxGeometry x="-730" y="1189" width="120" height="60" as="geometry" />
        </mxCell>
        <mxCell id="JwGyQa2PH85FUKWqyVEM-66" value="" style="edgeStyle=orthogonalEdgeStyle;rounded=0;orthogonalLoop=1;jettySize=auto;html=1;" edge="1" parent="1" source="JwGyQa2PH85FUKWqyVEM-64" target="JwGyQa2PH85FUKWqyVEM-65">
          <mxGeometry relative="1" as="geometry" />
        </mxCell>
        <mxCell id="JwGyQa2PH85FUKWqyVEM-64" value="拼接" style="rounded=0;whiteSpace=wrap;html=1;" vertex="1" parent="1">
          <mxGeometry x="-550" y="1352" width="120" height="60" as="geometry" />
        </mxCell>
        <mxCell id="JwGyQa2PH85FUKWqyVEM-67" value="" style="edgeStyle=orthogonalEdgeStyle;rounded=0;orthogonalLoop=1;jettySize=auto;html=1;" edge="1" parent="1" source="JwGyQa2PH85FUKWqyVEM-65" target="JwGyQa2PH85FUKWqyVEM-52">
          <mxGeometry relative="1" as="geometry" />
        </mxCell>
        <mxCell id="JwGyQa2PH85FUKWqyVEM-65" value="&lt;div&gt;每个高斯点顶点特征+&lt;/div&gt;&lt;div&gt;flame参数&lt;/div&gt;" style="rounded=1;whiteSpace=wrap;html=1;" vertex="1" parent="1">
          <mxGeometry x="-550" y="1444" width="120" height="60" as="geometry" />
        </mxCell>
        <mxCell id="JwGyQa2PH85FUKWqyVEM-69" value="init" style="text;html=1;align=center;verticalAlign=middle;whiteSpace=wrap;rounded=0;" vertex="1" parent="1">
          <mxGeometry x="-130" y="30" width="60" height="30" as="geometry" />
        </mxCell>
        <mxCell id="JwGyQa2PH85FUKWqyVEM-71" value="decode" style="text;html=1;align=center;verticalAlign=middle;whiteSpace=wrap;rounded=0;" vertex="1" parent="1">
          <mxGeometry x="-379" y="1189" width="60" height="30" as="geometry" />
        </mxCell>
        <mxCell id="JwGyQa2PH85FUKWqyVEM-75" value="" style="edgeStyle=orthogonalEdgeStyle;rounded=0;orthogonalLoop=1;jettySize=auto;html=1;" edge="1" parent="1" source="JwGyQa2PH85FUKWqyVEM-72" target="JwGyQa2PH85FUKWqyVEM-73">
          <mxGeometry relative="1" as="geometry" />
        </mxCell>
        <mxCell id="JwGyQa2PH85FUKWqyVEM-72" value="flame参数" style="rounded=1;whiteSpace=wrap;html=1;" vertex="1" parent="1">
          <mxGeometry x="488" y="39" width="120" height="60" as="geometry" />
        </mxCell>
        <mxCell id="JwGyQa2PH85FUKWqyVEM-76" value="" style="edgeStyle=orthogonalEdgeStyle;rounded=0;orthogonalLoop=1;jettySize=auto;html=1;" edge="1" parent="1" source="JwGyQa2PH85FUKWqyVEM-73" target="JwGyQa2PH85FUKWqyVEM-74">
          <mxGeometry relative="1" as="geometry" />
        </mxCell>
        <mxCell id="JwGyQa2PH85FUKWqyVEM-73" value="&lt;div&gt;构建几何模型&lt;/div&gt;" style="rounded=0;whiteSpace=wrap;html=1;" vertex="1" parent="1">
          <mxGeometry x="488" y="143" width="120" height="60" as="geometry" />
        </mxCell>
        <mxCell id="JwGyQa2PH85FUKWqyVEM-79" value="" style="edgeStyle=orthogonalEdgeStyle;rounded=0;orthogonalLoop=1;jettySize=auto;html=1;" edge="1" parent="1" source="JwGyQa2PH85FUKWqyVEM-74" target="JwGyQa2PH85FUKWqyVEM-77">
          <mxGeometry relative="1" as="geometry" />
        </mxCell>
        <mxCell id="JwGyQa2PH85FUKWqyVEM-74" value="&lt;div&gt;geometry&lt;/div&gt;&lt;div&gt;5023,3&lt;/div&gt;" style="rounded=1;whiteSpace=wrap;html=1;" vertex="1" parent="1">
          <mxGeometry x="488" y="252" width="120" height="60" as="geometry" />
        </mxCell>
        <mxCell id="JwGyQa2PH85FUKWqyVEM-80" value="" style="edgeStyle=orthogonalEdgeStyle;rounded=0;orthogonalLoop=1;jettySize=auto;html=1;" edge="1" parent="1" source="JwGyQa2PH85FUKWqyVEM-77" target="JwGyQa2PH85FUKWqyVEM-78">
          <mxGeometry relative="1" as="geometry" />
        </mxCell>
        <mxCell id="JwGyQa2PH85FUKWqyVEM-77" value="位置编码" style="rounded=0;whiteSpace=wrap;html=1;" vertex="1" parent="1">
          <mxGeometry x="488" y="377.5" width="120" height="60" as="geometry" />
        </mxCell>
        <mxCell id="JwGyQa2PH85FUKWqyVEM-93" value="" style="edgeStyle=orthogonalEdgeStyle;rounded=0;orthogonalLoop=1;jettySize=auto;html=1;" edge="1" parent="1" source="JwGyQa2PH85FUKWqyVEM-78" target="JwGyQa2PH85FUKWqyVEM-92">
          <mxGeometry relative="1" as="geometry" />
        </mxCell>
        <mxCell id="JwGyQa2PH85FUKWqyVEM-78" value="&lt;div&gt;顶点特征编码&lt;/div&gt;&lt;div&gt;5023,51&lt;/div&gt;" style="rounded=1;whiteSpace=wrap;html=1;" vertex="1" parent="1">
          <mxGeometry x="488" y="477.5" width="120" height="60" as="geometry" />
        </mxCell>
        <mxCell id="JwGyQa2PH85FUKWqyVEM-81" style="edgeStyle=orthogonalEdgeStyle;rounded=0;orthogonalLoop=1;jettySize=auto;html=1;exitX=1;exitY=0.5;exitDx=0;exitDy=0;entryX=0;entryY=0.5;entryDx=0;entryDy=0;" edge="1" parent="1" source="JwGyQa2PH85FUKWqyVEM-83" target="JwGyQa2PH85FUKWqyVEM-89">
          <mxGeometry relative="1" as="geometry">
            <mxPoint x="541" y="1724" as="targetPoint" />
          </mxGeometry>
        </mxCell>
        <mxCell id="JwGyQa2PH85FUKWqyVEM-102" style="edgeStyle=orthogonalEdgeStyle;rounded=0;orthogonalLoop=1;jettySize=auto;html=1;" edge="1" parent="1" source="JwGyQa2PH85FUKWqyVEM-83" target="JwGyQa2PH85FUKWqyVEM-101">
          <mxGeometry relative="1" as="geometry" />
        </mxCell>
        <mxCell id="JwGyQa2PH85FUKWqyVEM-83" value="flame参数" style="rounded=1;whiteSpace=wrap;html=1;" vertex="1" parent="1">
          <mxGeometry x="399" y="1392" width="120" height="60" as="geometry" />
        </mxCell>
        <mxCell id="JwGyQa2PH85FUKWqyVEM-97" value="" style="edgeStyle=orthogonalEdgeStyle;rounded=0;orthogonalLoop=1;jettySize=auto;html=1;" edge="1" parent="1" source="JwGyQa2PH85FUKWqyVEM-85" target="JwGyQa2PH85FUKWqyVEM-95">
          <mxGeometry relative="1" as="geometry" />
        </mxCell>
        <mxCell id="JwGyQa2PH85FUKWqyVEM-85" value="MLP" style="shape=process;whiteSpace=wrap;html=1;backgroundOutline=1;" vertex="1" parent="1">
          <mxGeometry x="581" y="1684" width="120" height="60" as="geometry" />
        </mxCell>
        <mxCell id="JwGyQa2PH85FUKWqyVEM-86" style="edgeStyle=orthogonalEdgeStyle;rounded=0;orthogonalLoop=1;jettySize=auto;html=1;" edge="1" parent="1" source="JwGyQa2PH85FUKWqyVEM-87" target="JwGyQa2PH85FUKWqyVEM-83">
          <mxGeometry relative="1" as="geometry" />
        </mxCell>
        <mxCell id="JwGyQa2PH85FUKWqyVEM-87" value="选取相机" style="rounded=0;whiteSpace=wrap;html=1;" vertex="1" parent="1">
          <mxGeometry x="399" y="1292" width="120" height="60" as="geometry" />
        </mxCell>
        <mxCell id="JwGyQa2PH85FUKWqyVEM-88" value="" style="edgeStyle=orthogonalEdgeStyle;rounded=0;orthogonalLoop=1;jettySize=auto;html=1;" edge="1" parent="1" source="JwGyQa2PH85FUKWqyVEM-89" target="JwGyQa2PH85FUKWqyVEM-91">
          <mxGeometry relative="1" as="geometry" />
        </mxCell>
        <mxCell id="JwGyQa2PH85FUKWqyVEM-89" value="拼接" style="rounded=0;whiteSpace=wrap;html=1;" vertex="1" parent="1">
          <mxGeometry x="581" y="1486" width="120" height="60" as="geometry" />
        </mxCell>
        <mxCell id="JwGyQa2PH85FUKWqyVEM-90" value="" style="edgeStyle=orthogonalEdgeStyle;rounded=0;orthogonalLoop=1;jettySize=auto;html=1;" edge="1" parent="1" source="JwGyQa2PH85FUKWqyVEM-91" target="JwGyQa2PH85FUKWqyVEM-85">
          <mxGeometry relative="1" as="geometry" />
        </mxCell>
        <mxCell id="JwGyQa2PH85FUKWqyVEM-91" value="&lt;div&gt;每个高斯点顶点特征+&lt;/div&gt;&lt;div&gt;flame参数&lt;/div&gt;" style="rounded=1;whiteSpace=wrap;html=1;" vertex="1" parent="1">
          <mxGeometry x="581" y="1578" width="120" height="60" as="geometry" />
        </mxCell>
        <mxCell id="JwGyQa2PH85FUKWqyVEM-132" value="" style="edgeStyle=orthogonalEdgeStyle;rounded=0;orthogonalLoop=1;jettySize=auto;html=1;" edge="1" parent="1" source="JwGyQa2PH85FUKWqyVEM-92" target="JwGyQa2PH85FUKWqyVEM-131">
          <mxGeometry relative="1" as="geometry" />
        </mxCell>
        <mxCell id="JwGyQa2PH85FUKWqyVEM-92" value="&lt;div&gt;初始化高斯属性&lt;/div&gt;" style="rounded=0;whiteSpace=wrap;html=1;" vertex="1" parent="1">
          <mxGeometry x="488" y="592.5" width="120" height="60" as="geometry" />
        </mxCell>
        <mxCell id="JwGyQa2PH85FUKWqyVEM-111" style="edgeStyle=orthogonalEdgeStyle;rounded=0;orthogonalLoop=1;jettySize=auto;html=1;entryX=0.75;entryY=0;entryDx=0;entryDy=0;" edge="1" parent="1" source="JwGyQa2PH85FUKWqyVEM-95" target="JwGyQa2PH85FUKWqyVEM-105">
          <mxGeometry relative="1" as="geometry" />
        </mxCell>
        <mxCell id="JwGyQa2PH85FUKWqyVEM-95" value="&lt;div&gt;形变顶点&lt;/div&gt;" style="rounded=1;whiteSpace=wrap;html=1;" vertex="1" parent="1">
          <mxGeometry x="581" y="1884" width="120" height="60" as="geometry" />
        </mxCell>
        <mxCell id="JwGyQa2PH85FUKWqyVEM-99" value="" style="edgeStyle=orthogonalEdgeStyle;rounded=0;orthogonalLoop=1;jettySize=auto;html=1;" edge="1" parent="1" source="JwGyQa2PH85FUKWqyVEM-98" target="JwGyQa2PH85FUKWqyVEM-89">
          <mxGeometry relative="1" as="geometry" />
        </mxCell>
        <mxCell id="JwGyQa2PH85FUKWqyVEM-98" value="高斯点顶点特征编码" style="rounded=1;whiteSpace=wrap;html=1;" vertex="1" parent="1">
          <mxGeometry x="581" y="1392" width="120" height="60" as="geometry" />
        </mxCell>
        <mxCell id="JwGyQa2PH85FUKWqyVEM-109" value="" style="edgeStyle=orthogonalEdgeStyle;rounded=0;orthogonalLoop=1;jettySize=auto;html=1;" edge="1" parent="1" source="JwGyQa2PH85FUKWqyVEM-101" target="JwGyQa2PH85FUKWqyVEM-136">
          <mxGeometry relative="1" as="geometry" />
        </mxCell>
        <mxCell id="JwGyQa2PH85FUKWqyVEM-101" value="构建几何模型" style="rounded=0;whiteSpace=wrap;html=1;" vertex="1" parent="1">
          <mxGeometry x="399" y="1486" width="120" height="60" as="geometry" />
        </mxCell>
        <mxCell id="JwGyQa2PH85FUKWqyVEM-110" style="edgeStyle=orthogonalEdgeStyle;rounded=0;orthogonalLoop=1;jettySize=auto;html=1;entryX=0.25;entryY=0;entryDx=0;entryDy=0;" edge="1" parent="1" source="JwGyQa2PH85FUKWqyVEM-103" target="JwGyQa2PH85FUKWqyVEM-105">
          <mxGeometry relative="1" as="geometry" />
        </mxCell>
        <mxCell id="JwGyQa2PH85FUKWqyVEM-103" value="flame参数生成顶点" style="rounded=1;whiteSpace=wrap;html=1;" vertex="1" parent="1">
          <mxGeometry x="399" y="1913" width="120" height="60" as="geometry" />
        </mxCell>
        <mxCell id="JwGyQa2PH85FUKWqyVEM-104" style="edgeStyle=orthogonalEdgeStyle;rounded=0;orthogonalLoop=1;jettySize=auto;html=1;" edge="1" parent="1" source="JwGyQa2PH85FUKWqyVEM-105" target="JwGyQa2PH85FUKWqyVEM-107">
          <mxGeometry relative="1" as="geometry" />
        </mxCell>
        <mxCell id="JwGyQa2PH85FUKWqyVEM-105" value="高斯点应用变形结果" style="rounded=0;whiteSpace=wrap;html=1;" vertex="1" parent="1">
          <mxGeometry x="478" y="2073" width="120" height="60" as="geometry" />
        </mxCell>
        <mxCell id="JwGyQa2PH85FUKWqyVEM-106" style="edgeStyle=orthogonalEdgeStyle;rounded=0;orthogonalLoop=1;jettySize=auto;html=1;" edge="1" parent="1" source="JwGyQa2PH85FUKWqyVEM-107" target="JwGyQa2PH85FUKWqyVEM-108">
          <mxGeometry relative="1" as="geometry" />
        </mxCell>
        <mxCell id="JwGyQa2PH85FUKWqyVEM-107" value="高斯点云" style="rounded=1;whiteSpace=wrap;html=1;" vertex="1" parent="1">
          <mxGeometry x="478" y="2193" width="120" height="60" as="geometry" />
        </mxCell>
        <mxCell id="JwGyQa2PH85FUKWqyVEM-116" style="edgeStyle=orthogonalEdgeStyle;rounded=0;orthogonalLoop=1;jettySize=auto;html=1;entryX=1;entryY=0.5;entryDx=0;entryDy=0;" edge="1" parent="1" source="JwGyQa2PH85FUKWqyVEM-108" target="JwGyQa2PH85FUKWqyVEM-114">
          <mxGeometry relative="1" as="geometry">
            <Array as="points">
              <mxPoint x="801" y="2338" />
              <mxPoint x="801" y="1322" />
            </Array>
          </mxGeometry>
        </mxCell>
        <mxCell id="JwGyQa2PH85FUKWqyVEM-108" value="训练" style="rounded=0;whiteSpace=wrap;html=1;" vertex="1" parent="1">
          <mxGeometry x="478" y="2308" width="120" height="60" as="geometry" />
        </mxCell>
        <mxCell id="JwGyQa2PH85FUKWqyVEM-113" style="edgeStyle=orthogonalEdgeStyle;rounded=0;orthogonalLoop=1;jettySize=auto;html=1;entryX=0.008;entryY=0.4;entryDx=0;entryDy=0;entryPerimeter=0;" edge="1" parent="1" source="JwGyQa2PH85FUKWqyVEM-108" target="JwGyQa2PH85FUKWqyVEM-87">
          <mxGeometry relative="1" as="geometry">
            <Array as="points">
              <mxPoint x="60" y="2338" />
              <mxPoint x="60" y="1316" />
            </Array>
          </mxGeometry>
        </mxCell>
        <mxCell id="JwGyQa2PH85FUKWqyVEM-115" value="" style="edgeStyle=orthogonalEdgeStyle;rounded=0;orthogonalLoop=1;jettySize=auto;html=1;" edge="1" parent="1" source="JwGyQa2PH85FUKWqyVEM-114" target="JwGyQa2PH85FUKWqyVEM-98">
          <mxGeometry relative="1" as="geometry" />
        </mxCell>
        <mxCell id="JwGyQa2PH85FUKWqyVEM-114" value="提取高斯点属性" style="rounded=0;whiteSpace=wrap;html=1;" vertex="1" parent="1">
          <mxGeometry x="581" y="1292" width="120" height="60" as="geometry" />
        </mxCell>
        <mxCell id="JwGyQa2PH85FUKWqyVEM-131" value="&lt;div&gt;高斯点云&lt;/div&gt;&lt;div&gt;5023,（51+45）&lt;/div&gt;" style="rounded=1;whiteSpace=wrap;html=1;" vertex="1" parent="1">
          <mxGeometry x="488" y="716" width="120" height="60" as="geometry" />
        </mxCell>
        <mxCell id="JwGyQa2PH85FUKWqyVEM-139" value="" style="edgeStyle=orthogonalEdgeStyle;rounded=0;orthogonalLoop=1;jettySize=auto;html=1;" edge="1" parent="1" source="JwGyQa2PH85FUKWqyVEM-133" target="JwGyQa2PH85FUKWqyVEM-134">
          <mxGeometry relative="1" as="geometry" />
        </mxCell>
        <mxCell id="JwGyQa2PH85FUKWqyVEM-133" value="初始化flame参数" style="rounded=1;whiteSpace=wrap;html=1;" vertex="1" parent="1">
          <mxGeometry x="173" y="1392" width="120" height="60" as="geometry" />
        </mxCell>
        <mxCell id="JwGyQa2PH85FUKWqyVEM-138" value="" style="edgeStyle=orthogonalEdgeStyle;rounded=0;orthogonalLoop=1;jettySize=auto;html=1;" edge="1" parent="1" source="JwGyQa2PH85FUKWqyVEM-134" target="JwGyQa2PH85FUKWqyVEM-135">
          <mxGeometry relative="1" as="geometry" />
        </mxCell>
        <mxCell id="JwGyQa2PH85FUKWqyVEM-134" value="构建几何模型" style="rounded=0;whiteSpace=wrap;html=1;" vertex="1" parent="1">
          <mxGeometry x="173" y="1486" width="120" height="60" as="geometry" />
        </mxCell>
        <mxCell id="JwGyQa2PH85FUKWqyVEM-141" style="edgeStyle=orthogonalEdgeStyle;rounded=0;orthogonalLoop=1;jettySize=auto;html=1;entryX=0;entryY=0.5;entryDx=0;entryDy=0;" edge="1" parent="1" source="JwGyQa2PH85FUKWqyVEM-135" target="JwGyQa2PH85FUKWqyVEM-137">
          <mxGeometry relative="1" as="geometry" />
        </mxCell>
        <mxCell id="JwGyQa2PH85FUKWqyVEM-135" value="&lt;div&gt;第0帧顶点&lt;/div&gt;&lt;div&gt;5023,3&lt;/div&gt;" style="rounded=1;whiteSpace=wrap;html=1;" vertex="1" parent="1">
          <mxGeometry x="173" y="1570" width="120" height="60" as="geometry" />
        </mxCell>
        <mxCell id="JwGyQa2PH85FUKWqyVEM-142" style="edgeStyle=orthogonalEdgeStyle;rounded=0;orthogonalLoop=1;jettySize=auto;html=1;entryX=1;entryY=0.5;entryDx=0;entryDy=0;" edge="1" parent="1" source="JwGyQa2PH85FUKWqyVEM-136" target="JwGyQa2PH85FUKWqyVEM-137">
          <mxGeometry relative="1" as="geometry" />
        </mxCell>
        <mxCell id="JwGyQa2PH85FUKWqyVEM-136" value="&lt;div&gt;当前帧顶点&lt;/div&gt;&lt;div&gt;5023,3&lt;/div&gt;" style="rounded=1;whiteSpace=wrap;html=1;" vertex="1" parent="1">
          <mxGeometry x="399" y="1570" width="120" height="60" as="geometry" />
        </mxCell>
        <mxCell id="JwGyQa2PH85FUKWqyVEM-144" value="" style="edgeStyle=orthogonalEdgeStyle;rounded=0;orthogonalLoop=1;jettySize=auto;html=1;" edge="1" parent="1" source="JwGyQa2PH85FUKWqyVEM-137" target="JwGyQa2PH85FUKWqyVEM-140">
          <mxGeometry relative="1" as="geometry" />
        </mxCell>
        <mxCell id="JwGyQa2PH85FUKWqyVEM-137" value="构建变形场" style="rounded=0;whiteSpace=wrap;html=1;" vertex="1" parent="1">
          <mxGeometry x="282" y="1653" width="120" height="60" as="geometry" />
        </mxCell>
        <mxCell id="JwGyQa2PH85FUKWqyVEM-146" style="edgeStyle=orthogonalEdgeStyle;rounded=0;orthogonalLoop=1;jettySize=auto;html=1;entryX=0;entryY=0.5;entryDx=0;entryDy=0;" edge="1" parent="1" source="JwGyQa2PH85FUKWqyVEM-140" target="JwGyQa2PH85FUKWqyVEM-143">
          <mxGeometry relative="1" as="geometry" />
        </mxCell>
        <mxCell id="JwGyQa2PH85FUKWqyVEM-140" value="变形场" style="rounded=1;whiteSpace=wrap;html=1;" vertex="1" parent="1">
          <mxGeometry x="282" y="1728" width="120" height="60" as="geometry" />
        </mxCell>
        <mxCell id="JwGyQa2PH85FUKWqyVEM-147" value="" style="edgeStyle=orthogonalEdgeStyle;rounded=0;orthogonalLoop=1;jettySize=auto;html=1;" edge="1" parent="1" source="JwGyQa2PH85FUKWqyVEM-143" target="JwGyQa2PH85FUKWqyVEM-103">
          <mxGeometry relative="1" as="geometry" />
        </mxCell>
        <mxCell id="JwGyQa2PH85FUKWqyVEM-143" value="应用变形场" style="rounded=0;whiteSpace=wrap;html=1;" vertex="1" parent="1">
          <mxGeometry x="399" y="1829" width="120" height="60" as="geometry" />
        </mxCell>
      </root>
    </mxGraphModel>
  </diagram>
</mxfile>
